<svg xmlns="http://www.w3.org/2000/svg" viewBox="0 0 100 100" width="100" height="100">
  <defs>
    <linearGradient id="bgGradient" x1="0%" y1="0%" x2="100%" y2="100%">
      <stop offset="0%" stop-color="#4a6fa5" />
      <stop offset="100%" stop-color="#2a4d7e" />
    </linearGradient>
    <linearGradient id="docGradient" x1="0%" y1="0%" x2="100%" y2="100%">
      <stop offset="0%" stop-color="#f7f9fc" />
      <stop offset="100%" stop-color="#e8edf5" />
    </linearGradient>
    <filter id="shadow" x="-20%" y="-20%" width="140%" height="140%">
      <feGaussianBlur in="SourceAlpha" stdDeviation="2" />
      <feOffset dx="2" dy="2" result="offsetblur" />
      <feFlood flood-color="rgba(0,0,0,0.2)" />
      <feComposite in2="offsetblur" operator="in" />
      <feMerge>
        <feMergeNode />
        <feMergeNode in="SourceGraphic" />
      </feMerge>
    </filter>
  </defs>
  
  <!-- Background circle -->
  <circle cx="50" cy="50" r="45" fill="url(#bgGradient)" />
  
  <!-- Document -->
  <g filter="url(#shadow)">
    <path d="M35,25 H65 A5,5 0 0,1 70,30 V70 A5,5 0 0,1 65,75 H35 A5,5 0 0,1 30,70 V30 A5,5 0 0,1 35,25 Z" fill="url(#docGradient)" />
    
    <!-- Lines on document -->
    <line x1="35" y1="40" x2="65" y2="40" stroke="#c3cfdd" stroke-width="1" />
    <line x1="35" y1="45" x2="65" y2="45" stroke="#c3cfdd" stroke-width="1" />
    <line x1="35" y1="50" x2="65" y2="50" stroke="#c3cfdd" stroke-width="1" />
    <line x1="35" y1="55" x2="55" y2="55" stroke="#c3cfdd" stroke-width="1" />
    <line x1="35" y1="60" x2="65" y2="60" stroke="#c3cfdd" stroke-width="1" />
    <line x1="35" y1="65" x2="60" y2="65" stroke="#c3cfdd" stroke-width="1" />
    
    <!-- Corner fold -->
    <path d="M65,25 V30 H70 Z" fill="#d6dee9" />
  </g>
  
  <!-- User profile icon -->
  <circle cx="50" cy="38" r="7" fill="#4a6fa5" />
  <path d="M44,48 C42,48 40,50 40,52 V55 H60 V52 C60,50 58,48 56,48 Z" fill="#4a6fa5" />
  
  <!-- Decorative elements -->
  <circle cx="30" cy="30" r="2" fill="#ff9f43" />
  <circle cx="70" cy="35" r="2" fill="#26c281" />
  <circle cx="65" cy="65" r="2" fill="#ed5565" />
</svg>